<svg width="577" height="331" viewBox="0 0 577 331" xmlns="http://www.w3.org/2000/svg">
<rect width="577" height="331" style="fill: rgb(255, 152, 0);"></rect>
<path d="M 274.509 237.491 C 263.113 226.052 261.433 224.233 261.238 223.148 C 260.562 219.358 263.751 216.316 267.635 217.044 C 268.691 217.243 269.957 218.344 275.811 224.156 L 282.738 231.034 L 282.738 191.169 L 282.738 151.304 L 263.046 170.993 L 243.351 190.683 L 252.782 190.851 C 262.019 191.015 262.24 191.033 263.505 191.82 C 264.864 192.665 266.036 194.69 266.036 196.19 C 266.036 197.693 264.864 199.716 263.505 200.561 L 262.214 201.364 L 243.855 201.364 L 225.5 201.364 L 225.5 182.781 C 225.5 164.534 225.51 164.183 226.187 163.277 C 227.483 161.543 228.569 160.98 230.614 160.98 C 232.039 160.98 232.766 161.162 233.551 161.725 C 235.581 163.17 235.679 163.743 235.679 174.213 L 235.679 183.674 L 259.208 160.145 L 282.738 136.617 L 282.738 124.339 L 282.738 112.061 L 281.321 111.449 C 278.572 110.263 275.459 107.478 273.818 104.742 C 271.598 101.041 271.063 95.472 272.532 91.317 C 275.844 81.936 286.844 77.63 295.559 82.308 C 297.78 83.502 301.177 86.911 302.249 89.025 C 306.348 97.118 303.35 106.727 295.422 110.893 L 293.085 112.121 L 293.085 124.368 L 293.085 136.617 L 317.116 160.645 L 341.147 184.676 L 341.147 174.708 C 341.147 165.175 341.175 164.688 341.852 163.486 C 343.26 160.983 346.615 160.067 348.85 161.573 C 349.468 161.989 350.317 162.84 350.736 163.461 L 351.5 164.592 L 351.411 182.979 L 351.327 201.364 L 334.138 201.462 C 324.683 201.515 316.299 201.466 315.504 201.353 C 314.505 201.213 313.659 200.785 312.754 199.968 C 309.856 197.353 310.43 193.841 314.196 191.127 C 314.242 191.091 318.372 190.98 323.375 190.876 L 332.472 190.683 L 312.779 170.993 L 293.085 151.304 L 293.085 191.016 L 293.085 230.728 L 299.676 224.156 C 303.302 220.542 306.692 217.426 307.208 217.232 C 309.454 216.397 311.993 217.213 313.359 219.218 C 314.284 220.573 314.39 223.322 313.566 224.571 C 312.978 225.461 288.031 250.594 287.736 250.594 C 287.641 250.594 281.685 244.698 274.509 237.491 Z" style="stroke-width: 1; fill: rgb(255, 255, 255); transform-origin: -412.918px 165.5px;"></path>
</svg>